<svg xmlns="http://www.w3.org/2000/svg" width="123.131" height="60" viewBox="0 0 123.131 60">
  <g id="Group_1" data-name="Group 1" transform="translate(0 0.001)">
    <path id="Path_1" data-name="Path 1" d="M18.125,0V1.972H16.144V3.894H13.5V1.972h-2.03V0H.049V28.728H5.477V5.266h6.607V28.728H17.51V5.266h6.657V28.728h5.427V0Z" transform="translate(-0.006 0)" fill="#fff"/>
    <rect id="Rectangle_1" data-name="Rectangle 1" width="5.427" height="5.266" transform="translate(34.163 0)" fill="#fff"/>
    <rect id="Rectangle_2" data-name="Rectangle 2" width="5.427" height="20.891" transform="translate(34.163 7.837)" fill="#fff"/>
    <path id="Path_2" data-name="Path 2" d="M85.288,9.018V29.909h5.427V14.236h4.626V29.909h5.427V14.236h4.674V29.909h5.427v-17h-2.03V10.941h-2.03V9.018h-5.428v1.923H99.4v1.972H96.757V10.941H94.726V9.018Z" transform="translate(-10.979 -1.161)" fill="#fff"/>
    <path id="Path_3" data-name="Path 3" d="M50.691,8.995V29.886h5.427V14.213h4.626V29.886h5.427V14.213h4.674V29.886h5.427v-17h-2.03V10.918h-2.03V8.995H66.785v1.923H64.8v1.972H62.16V10.918H60.129V8.995Z" transform="translate(-6.525 -1.158)" fill="#fff"/>
    <rect id="Rectangle_3" data-name="Rectangle 3" width="5.428" height="5.266" transform="translate(104.29 -0.001)" fill="#fff"/>
    <rect id="Rectangle_4" data-name="Rectangle 4" width="5.427" height="20.891" transform="translate(104.29 7.836)" fill="#fff"/>
    <path id="Path_4" data-name="Path 4" d="M130.961,0V24.834h1.931v1.924h1.931v1.971h5.167V23.463h-3.861V13.1h3.861V7.838h-3.861V0Z" transform="translate(-16.858 0)" fill="#fff"/>
    <path id="Path_5" data-name="Path 5" d="M0,35.891V64.619H5.377V56.783h6.664v7.788h5.377V57.382H15.4v-1.97H13.439V52.84H15.4V50.917h2.015V43.695H12.042v7.821H5.377V35.891Z" transform="translate(0 -4.62)" fill="#fff"/>
    <path id="Path_6" data-name="Path 6" d="M29.279,50.152H35.61V60.511H29.279Zm-1.35-5.266v1.972H26.045V48.78H24.113v13.1h1.932v1.924h1.885v1.972h9.029V63.806h1.885V61.882h1.932V48.78H38.844V46.858H36.958V44.886Z" transform="translate(-3.104 -5.778)" fill="#fff"/>
    <path id="Path_7" data-name="Path 7" d="M53.144,50.152h6.332V60.511H53.144ZM51.8,44.886v1.972H49.911V48.78H47.979v13.1h1.932v1.924H51.8v1.972h9.029V63.806h1.885V61.882H64.64V48.78H62.709V46.858H60.824V44.886Z" transform="translate(-6.176 -5.778)" fill="#fff"/>
    <path id="Path_8" data-name="Path 8" d="M77.063,48.994h6.513V59.353H77.063Zm6.513-13.1v7.837H75.74v1.923H73.768v1.972H71.845v13.1h1.923v1.924H75.74v1.971H88.9V35.891Z" transform="translate(-9.248 -4.62)" fill="#fff"/>
    <path id="Path_9" data-name="Path 9" d="M101.5,57.891h6.765v2.571H101.5ZM98.085,44.886V50.1h10.183v2.522h-8.137V54.6H98.085v1.972h-2v5.266h2v1.923h2.047v2.02h13.6V48.733h-2.048V46.761h-2.047V44.886Z" transform="translate(-12.369 -5.778)" fill="#fff"/>
    <path id="Path_10" data-name="Path 10" d="M126.428,57.891h6.765v2.571h-6.765Zm-3.419-13.005V50.1h10.183v2.522h-8.137V54.6h-2.047v1.972h-2v5.266h2v1.923h2.047v2.02h13.6V48.733h-2.047V46.761h-2.047V44.886Z" transform="translate(-15.578 -5.778)" fill="#fff"/>
  </g>
</svg>